<svg width="15" height="16" viewBox="0 0 15 16" fill="none" xmlns="http://www.w3.org/2000/svg">
<path d="M13.9868 0H1.01181C0.446387 0 0 0.47619 0 1.07937V14.9206C0 15.5238 0.446387 16 1.01181 16H7.43978H9.58244H13.9868C14.5522 16 14.9986 15.5238 14.9986 14.9206V1.07937C15.0284 0.47619 14.582 0 13.9868 0ZM13.8677 14.7936H9.73123V10.5397H11.6061L11.9036 8.19048H9.73123V6.69841C9.73123 6.03175 9.90979 5.55556 10.8323 5.55556H11.9929V3.46032C11.7846 3.42857 11.1001 3.36508 10.2967 3.36508C8.63014 3.36508 7.46954 4.44444 7.46954 6.47619V8.19048H5.56495V10.5397H7.46954V14.7936H1.16061V1.2381H13.8677V14.7936Z" fill="#F19106"/>
</svg>
