<svg width="11" height="11" viewBox="0 0 11 11" fill="none" xmlns="http://www.w3.org/2000/svg">
<path d="M10.2281 0H0.77193C0.289474 0 0 0.280598 0 0.748261V9.91446C0 10.2886 0.289474 10.6627 0.77193 10.6627H5.5H7.04386H10.2281C10.614 10.6627 11 10.3821 11 9.91446V0.748261C11 0.280598 10.614 0 10.2281 0ZM10.1316 9.82093H7.14035V7.01495H8.49123L8.68421 5.42489H7.14035V4.48957C7.14035 4.0219 7.23684 3.74131 7.91228 3.74131H8.7807V2.33832C8.58772 2.33832 8.10526 2.24478 7.52632 2.24478C6.27193 2.24478 5.5 2.99304 5.5 4.3025V5.42489H4.05263V7.01495H5.40351V9.82093H0.868421V0.841794H10.1316V9.82093Z" fill="#4064AC"/>
</svg>
