<svg width="15" height="15" viewBox="0 0 15 15" fill="none" xmlns="http://www.w3.org/2000/svg">
<path d="M7.5 0C5.46 0 5.19 0 4.41 0.06C3.63 0.12 3.06 0.24 2.58 0.39C2.1 0.57 1.68 0.84 1.26 1.26C0.84 1.68 0.57 2.1 0.39 2.58C0.21 3.06 0.09 3.6 0.06 4.41C0.03 5.22 0 5.49 0 7.5C0 9.51 0 9.81 0.06 10.59C0.12 11.4 0.24 11.94 0.39 12.42C0.57 12.9 0.84 13.35 1.26 13.74C1.68 14.16 2.1 14.43 2.58 14.61C3.06 14.79 3.6 14.91 4.41 14.94C5.22 15 5.46 15 7.5 15C9.54 15 9.81 15 10.59 14.94C11.37 14.88 11.94 14.76 12.42 14.61C12.9 14.43 13.35 14.16 13.74 13.74C14.16 13.32 14.43 12.9 14.61 12.42C14.79 11.94 14.91 11.4 14.94 10.59C14.97 9.78 15 9.54 15 7.5C15 5.46 15 5.19 14.94 4.41C14.88 3.63 14.76 3.06 14.61 2.58C14.43 2.1 14.16 1.65 13.74 1.26C13.32 0.87 12.9 0.57 12.42 0.39C11.94 0.21 11.37 0.09 10.59 0.06C9.81 0.03 9.57 0 7.5 0ZM6.84 1.38C7.02 1.38 7.26 1.38 7.53 1.38C9.54 1.38 9.78 1.38 10.56 1.44C11.28 1.47 11.7 1.59 11.97 1.71C12.33 1.86 12.57 2.01 12.84 2.28C13.11 2.55 13.26 2.79 13.41 3.15C13.5 3.42 13.62 3.81 13.68 4.56C13.71 5.37 13.74 5.61 13.74 7.59C13.74 9.57 13.74 9.84 13.68 10.62C13.65 11.34 13.53 11.76 13.41 12.03C13.26 12.39 13.11 12.63 12.84 12.9C12.57 13.17 12.33 13.32 11.97 13.47C11.7 13.56 11.31 13.68 10.56 13.74C9.75 13.77 9.51 13.8 7.53 13.8C5.55 13.8 5.28 13.8 4.5 13.74C3.78 13.71 3.36 13.59 3.09 13.47C2.73 13.32 2.49 13.17 2.22 12.9C1.92 12.6 1.77 12.36 1.65 12C1.56 11.73 1.44 11.34 1.38 10.59C1.35 9.78 1.32 9.54 1.32 7.56C1.32 5.58 1.32 5.31 1.38 4.53C1.41 3.81 1.53 3.39 1.65 3.12C1.8 2.76 1.95 2.52 2.22 2.25C2.49 1.98 2.7 1.8 3.06 1.68C3.33 1.59 3.72 1.47 4.47 1.41C5.16 1.38 5.43 1.38 6.84 1.38ZM11.52 2.61C11.01 2.61 10.62 3.03 10.62 3.51C10.62 4.02 11.04 4.41 11.52 4.41C12.03 4.41 12.42 3.99 12.42 3.51C12.45 3.03 12.03 2.61 11.52 2.61ZM7.5 3.66C5.37 3.66 3.63 5.4 3.63 7.53C3.63 9.66 5.4 11.4 7.5 11.4C9.6 11.4 11.37 9.66 11.37 7.53C11.37 5.4 9.63 3.66 7.5 3.66ZM7.5 5.04C8.88 5.04 10.02 6.15 10.02 7.56C10.02 8.94 8.91 10.08 7.5 10.08C6.12 10.08 4.98 8.97 4.98 7.56C5.01 6.15 6.15 5.04 7.5 5.04Z" fill="#F19106"/>
</svg>
