<svg width="13" height="12" viewBox="0 0 13 12" fill="none" xmlns="http://www.w3.org/2000/svg">
<path d="M12.2488 2.7C11.8488 1.1 10.4488 0 8.84884 0C7.94884 0 7.04884 0.3 6.24884 0.9C5.44884 0.3 4.54884 0 3.64884 0C2.04884 0 0.64884 1.1 0.14884 2.7C-0.45116 4.9 0.64884 8.2 5.54884 11.1L6.14884 11.5L6.74884 11.1C11.7488 8.3 12.8488 4.9 12.2488 2.7ZM6.24884 10.1C1.94884 7.5 0.94884 4.8 1.34884 3C1.64884 1.9 2.54884 1.2 3.64884 1.2C4.34884 1.2 5.14884 1.5 5.84884 2.1L6.24884 2.5L6.64884 2.1C7.34884 1.6 8.04884 1.2 8.84884 1.2C9.94884 1.2 10.8488 1.9 11.1488 3C11.5488 4.8 10.5488 7.6 6.24884 10.1Z" fill="black"/>
</svg>
