<svg width="15" height="10" viewBox="0 0 15 10" fill="none" xmlns="http://www.w3.org/2000/svg">
<path d="M14.4323 0H0.537849C0.239044 0 0 0.233918 0 0.526316V9.47368C0 9.76608 0.239044 10 0.537849 10H14.4622C14.761 10 15 9.76608 15 9.47368V0.526316C14.9701 0.233918 14.7311 0 14.4323 0ZM13.9243 1.75439V8.24561L10.6076 5L13.9243 1.75439ZM1.79283 1.02339H13.1773L7.47012 6.60819L1.79283 1.02339ZM5.10956 5.73099L7.11155 7.69006C7.32072 7.89474 7.6494 7.89474 7.85857 7.69006L9.86056 5.73099L13.1474 8.97661H1.79283L5.10956 5.73099ZM4.36255 5L1.04582 8.24561V1.75439L4.36255 5Z" fill="#F19106"/>
</svg>
