<svg width="12" height="13" viewBox="0 0 12 13" fill="none" xmlns="http://www.w3.org/2000/svg">
<path d="M2.33333 8.72708C2.93333 8.72708 3.43333 8.52708 3.93333 8.12708L7.33333 9.72708C6.93333 10.9271 7.53333 12.2271 8.73333 12.7271C9.93333 13.1271 11.2333 12.5271 11.7333 11.3271C12.1333 10.1271 11.5333 8.82708 10.3333 8.32708C9.43333 8.02708 8.53333 8.22708 7.83333 8.82708L4.53333 7.22708C4.73333 6.72708 4.73333 6.12708 4.53333 5.52708L7.83333 3.92708C8.73333 4.82708 10.2333 4.92708 11.1333 4.02708C12.0333 3.12708 12.1333 1.62708 11.2333 0.727079C10.3333 -0.172921 8.83333 -0.272921 7.93333 0.627079C7.23333 1.22708 7.03333 2.12708 7.23333 3.02708L3.83333 4.62708C2.83333 3.82708 1.33333 4.02708 0.533333 5.02708C-0.266667 6.02708 -0.166667 7.42708 0.833333 8.32708C1.33333 8.62708 1.83333 8.72708 2.33333 8.72708Z" fill="#F19106"/>
</svg>
