<svg width="12" height="13" viewBox="0 0 12 13" fill="none" xmlns="http://www.w3.org/2000/svg">
<path d="M2.33333 8.72708C2.93333 8.72708 3.43333 8.52708 3.93333 8.12708L7.33333 9.72708C6.93333 10.9271 7.53333 12.2271 8.73333 12.7271C9.93333 13.1271 11.2333 12.5271 11.7333 11.3271C12.1333 10.1271 11.5333 8.82708 10.3333 8.32708C9.43333 8.02708 8.53333 8.22708 7.83333 8.82708L4.53333 7.22708C4.73333 6.72708 4.73333 6.12708 4.53333 5.52708L7.83333 3.92708C8.73333 4.82708 10.2333 4.92708 11.1333 4.02708C12.0333 3.12708 12.1333 1.62708 11.2333 0.727079C10.3333 -0.172921 8.83333 -0.272921 7.93333 0.627079C7.23333 1.22708 7.03333 2.12708 7.23333 3.02708L3.83333 4.62708C2.83333 3.82708 1.33333 4.02708 0.533333 5.02708C-0.266667 6.02708 -0.166667 7.42708 0.833333 8.32708C1.33333 8.62708 1.83333 8.72708 2.33333 8.72708ZM9.43333 9.32708C10.1333 9.32708 10.6333 9.82708 10.6333 10.5271C10.6333 11.2271 10.1333 11.7271 9.43333 11.7271C8.73333 11.7271 8.23333 11.2271 8.23333 10.5271C8.23333 9.82708 8.83333 9.32708 9.43333 9.32708ZM9.43333 1.12708C10.1333 1.12708 10.6333 1.62708 10.6333 2.32708C10.6333 3.02708 10.1333 3.52708 9.43333 3.52708C8.83333 3.52708 8.23333 3.02708 8.23333 2.32708C8.23333 1.72708 8.83333 1.12708 9.43333 1.12708ZM2.33333 5.22708C3.03333 5.22708 3.53333 5.72708 3.53333 6.42708C3.53333 7.12708 3.03333 7.62708 2.33333 7.62708C1.63333 7.62708 1.13333 7.12708 1.13333 6.42708C1.13333 5.72708 1.63333 5.22708 2.33333 5.22708Z" fill="white"/>
</svg>
