<svg width="52" height="23" viewBox="0 0 52 23" fill="none" xmlns="http://www.w3.org/2000/svg">
<path d="M1 21.6428L51 18.1817" stroke="white" stroke-width="2" stroke-miterlimit="10" stroke-linejoin="bevel"/>
<path d="M17.4399 20.5303C15.7712 19.2942 14.6587 17.2547 14.6587 14.9679C14.6587 11.136 17.7489 8.04578 21.5808 8.04578C25.4127 8.04578 28.5029 11.136 28.5029 14.9679C28.5029 16.8838 27.6995 18.6144 26.4634 19.8505" stroke="white" stroke-width="2" stroke-miterlimit="10" stroke-linejoin="bevel"/>
<path d="M9.59082 21.0865V3.16315H42.4091V18.7379" stroke="white" stroke-width="2" stroke-miterlimit="10" stroke-linejoin="bevel"/>
<path d="M35.6106 13.0519C36.9418 13.0519 38.021 11.9727 38.021 10.6415C38.021 9.31031 36.9418 8.23114 35.6106 8.23114C34.2794 8.23114 33.2002 9.31031 33.2002 10.6415C33.2002 11.9727 34.2794 13.0519 35.6106 13.0519Z" fill="white"/>
<path d="M38.0829 1H33.0149V3.16316H38.0829V1Z" stroke="white" stroke-width="2" stroke-miterlimit="10" stroke-linejoin="bevel"/>
</svg>
