<svg width="15" height="15" viewBox="0 0 15 15" fill="none" xmlns="http://www.w3.org/2000/svg">
<path d="M7.49352 15C8.48214 15 9.47076 14.82 10.3695 14.43C14.1742 12.84 16.0017 8.46 14.4438 4.59C13.2755 1.8 10.5493 0 7.49352 0C6.5049 0 5.51628 0.18 4.61753 0.57C0.812837 2.16 -1.01461 6.57 0.573171 10.41C1.74154 13.2 4.46774 15 7.49352 15ZM2.07108 10.74H3.59895C3.89853 11.64 4.31795 12.54 4.82724 13.26C3.68883 12.69 2.73016 11.85 2.07108 10.74ZM13.5151 5.46C13.9945 6.84 13.9645 8.28 13.5151 9.57H11.8674C12.0172 8.88 12.0771 8.16 12.0771 7.5C12.0771 6.81 12.0172 6.12 11.8974 5.46H13.5151ZM10.8788 7.5C10.8788 8.16 10.7889 8.88 10.6092 9.57H8.12264V5.46H10.6691C10.8189 6.09 10.8788 6.78 10.8788 7.5ZM6.95427 13.65C6.08548 13.26 5.33653 12.09 4.82724 10.74H6.95427V13.65ZM8.1526 13.65V10.74H10.2796C9.74039 12.12 8.96147 13.29 8.1526 13.65ZM8.1526 4.26V1.29C9.05135 1.65 9.86022 2.79 10.3695 4.26H8.1526ZM6.95427 1.29V4.26H4.73736C5.24665 2.79 6.08548 1.65 6.95427 1.29ZM6.95427 5.46V9.57H4.46774C4.28799 8.88 4.19812 8.16 4.19812 7.5C4.19812 6.81 4.28799 6.12 4.40782 5.46H6.95427ZM3.26941 9.54H1.53183C1.0525 8.16 1.08246 6.72 1.53183 5.43H3.20949C3.0597 6.12 3.02975 6.81 3.02975 7.5C3.02975 8.13 3.11962 8.82 3.26941 9.54ZM10.3396 13.17C10.5193 12.93 10.699 12.63 10.8488 12.33C11.0885 11.82 11.3581 11.31 11.5079 10.71H12.9459C12.3468 11.76 11.448 12.63 10.3396 13.17ZM12.9459 4.26H11.5978C11.418 3.63 11.1484 3 10.8488 2.46C10.729 2.28 10.6391 2.1 10.5193 1.92C11.5079 2.46 12.3468 3.27 12.9459 4.26ZM4.61753 1.86C4.46774 2.04 4.37787 2.25 4.25803 2.43C3.95845 2.97 3.71878 3.6 3.50908 4.23H2.07108C2.67025 3.27 3.53904 2.43 4.61753 1.86Z" fill="#F19106"/>
</svg>
